<?xml version="1.0" encoding="UTF-8"?>
<svg xmlns="http://www.w3.org/2000/svg" width="240" height="62" viewBox="0 0 240 62" fill="none">
  <path d="M92.9204 34.9653L93.0555 35.5777C93.2355 35.3508 93.4606 35.1694 93.7532 35.0333C94.0458 34.8972 94.3384 34.8292 94.631 34.8292C95.3287 34.8292 95.8689 35.056 96.2515 35.5323C96.6116 36.0086 96.8142 36.6664 96.8142 37.5056C96.8142 38.2314 96.6792 38.8211 96.4316 39.2294C96.184 39.6376 95.9139 39.9098 95.5763 40.0686C95.2612 40.2047 94.9461 40.2727 94.631 40.2727C93.9558 40.2727 93.4381 40.0686 93.0555 39.6377H93.033L93.0555 40.6583V42.7223H92.6278V34.9653H92.9204ZM96.3416 37.5283C96.3416 36.8025 96.2065 36.2354 95.8914 35.8272C95.5988 35.4416 95.1712 35.2374 94.631 35.2374C94.2934 35.2374 94.0008 35.3282 93.7082 35.4869C93.4381 35.6457 93.213 35.8498 93.0555 36.0993V39.184C93.303 39.4335 93.5281 39.615 93.7757 39.7057C94.0233 39.8191 94.2934 39.8645 94.6085 39.8645C95.0361 39.8645 95.4413 39.7284 95.8014 39.4108C96.1615 39.0933 96.3416 38.4809 96.3416 37.5283ZM100.798 32.1074H101.225V40.1366H100.798V32.1074ZM105.187 38.6623C105.187 38.186 105.344 37.8004 105.682 37.5283C105.997 37.2334 106.425 37.0973 106.942 37.0973C107.437 37.0973 107.955 37.188 108.495 37.3922V36.7344C108.495 36.2354 108.36 35.8725 108.113 35.623C107.865 35.3508 107.482 35.2374 106.92 35.2374C106.582 35.2374 106.132 35.3282 105.637 35.4869V35.0787C105.749 35.0106 105.929 34.9653 106.177 34.8972C106.425 34.8518 106.672 34.8292 106.92 34.8292C107.595 34.8292 108.113 34.9879 108.428 35.3055C108.765 35.623 108.923 36.0993 108.923 36.7344V38.4809C108.923 38.8438 108.945 39.4108 108.968 40.1366H108.585L108.495 39.5469H108.473C108.315 39.7284 108.068 39.9098 107.752 40.0686C107.437 40.2047 107.145 40.2727 106.83 40.2727C106.334 40.2727 105.952 40.1366 105.637 39.8871C105.344 39.615 105.187 39.2067 105.187 38.6623ZM108.495 39.0706V37.7778C108.225 37.687 107.978 37.5963 107.775 37.5736C107.55 37.5283 107.257 37.5056 106.897 37.5056C106.492 37.5056 106.177 37.5963 105.974 37.8004C105.749 38.0046 105.637 38.2994 105.637 38.6623C105.637 39.0706 105.749 39.3882 105.974 39.5923C106.177 39.7737 106.47 39.8871 106.83 39.8871C107.235 39.8871 107.55 39.7964 107.82 39.6377C108.068 39.4789 108.293 39.2974 108.495 39.0706ZM112.884 40.0232V39.5469C113.289 39.7737 113.739 39.8871 114.257 39.8871C114.707 39.8871 115.045 39.7737 115.292 39.5696C115.54 39.3655 115.653 39.0706 115.653 38.7077C115.653 38.4355 115.585 38.2087 115.405 38.0726C115.247 37.9139 114.977 37.7778 114.572 37.687C114.212 37.5963 113.919 37.5056 113.694 37.4149C113.469 37.3241 113.289 37.188 113.132 36.9839C112.997 36.8025 112.929 36.553 112.929 36.2581C112.929 35.7818 113.087 35.4189 113.402 35.1921C113.717 34.9426 114.122 34.8292 114.617 34.8292C115.067 34.8292 115.495 34.9199 115.878 35.124V35.555C115.675 35.4416 115.473 35.3735 115.27 35.3055C115.09 35.2601 114.842 35.2147 114.595 35.2147C114.19 35.2147 113.874 35.3055 113.672 35.4869C113.447 35.6684 113.357 35.8952 113.357 36.2127C113.357 36.4396 113.402 36.621 113.492 36.7344C113.604 36.8705 113.739 36.9612 113.897 37.0293C114.077 37.0973 114.347 37.1654 114.685 37.2561C115.18 37.3922 115.54 37.5509 115.743 37.7551C115.968 37.9819 116.08 38.2768 116.08 38.685C116.08 39.1613 115.923 39.5469 115.608 39.8418C115.27 40.1366 114.82 40.2727 114.257 40.2727C113.672 40.2727 113.199 40.182 112.884 40.0232ZM120.154 38.9118V35.3962H119.164V34.9653H120.154V33.5817H120.582V34.9653H122.135V35.3962H120.582V38.7758C120.582 39.184 120.649 39.4562 120.807 39.615C120.964 39.7964 121.212 39.8645 121.527 39.8645C121.82 39.8645 122.045 39.8418 122.202 39.7737V40.1593C122 40.2501 121.73 40.2727 121.437 40.2727C121.032 40.2727 120.717 40.1593 120.492 39.9325C120.267 39.7057 120.154 39.3655 120.154 38.9118ZM125.938 33.2188H126.434V33.7404H125.938V33.2188ZM125.961 34.9653H126.389V40.1366H125.961V34.9653ZM130.395 37.5963C130.395 36.9385 130.507 36.3942 130.733 35.9859C130.958 35.5777 131.25 35.2828 131.61 35.1013C131.97 34.9199 132.331 34.8292 132.713 34.8292C132.961 34.8292 133.208 34.8518 133.456 34.9199C133.681 34.9653 133.884 35.0333 134.041 35.124V35.5777C133.839 35.4869 133.636 35.3962 133.388 35.3282C133.141 35.2601 132.916 35.2374 132.691 35.2374C132.376 35.2374 132.083 35.3055 131.813 35.4642C131.52 35.623 131.295 35.8952 131.115 36.2354C130.935 36.5983 130.845 37.052 130.845 37.619C130.845 38.2994 131.025 38.8438 131.363 39.2521C131.723 39.6603 132.196 39.8645 132.803 39.8645C133.186 39.8645 133.636 39.7737 134.109 39.5469V39.9779C133.726 40.182 133.253 40.2727 132.758 40.2727C132.331 40.2727 131.925 40.182 131.565 39.9779C131.205 39.7964 130.913 39.5016 130.71 39.0933C130.485 38.685 130.395 38.186 130.395 37.5963ZM143.022 40.0232V39.5469C143.427 39.7737 143.877 39.8871 144.395 39.8871C144.845 39.8871 145.182 39.7737 145.43 39.5696C145.678 39.3655 145.79 39.0706 145.79 38.7077C145.79 38.4355 145.723 38.2087 145.542 38.0726C145.385 37.9139 145.115 37.7778 144.71 37.687C144.35 37.5963 144.057 37.5056 143.832 37.4149C143.607 37.3241 143.427 37.188 143.269 36.9839C143.134 36.8025 143.067 36.553 143.067 36.2581C143.067 35.7818 143.224 35.4189 143.539 35.1921C143.854 34.9426 144.26 34.8292 144.755 34.8292C145.205 34.8292 145.633 34.9199 146.015 35.124V35.555C145.813 35.4416 145.61 35.3735 145.407 35.3055C145.205 35.2601 144.98 35.2147 144.732 35.2147C144.327 35.2147 144.012 35.3055 143.809 35.4869C143.584 35.6684 143.494 35.8952 143.494 36.2127C143.494 36.4396 143.539 36.621 143.629 36.7344C143.742 36.8705 143.877 36.9612 144.034 37.0293C144.215 37.0973 144.485 37.1654 144.822 37.2561C145.317 37.3922 145.678 37.5509 145.88 37.7551C146.105 37.9819 146.218 38.2768 146.218 38.685C146.218 39.1613 146.06 39.5469 145.723 39.8418C145.407 40.1366 144.957 40.2727 144.395 40.2727C143.787 40.2727 143.337 40.182 143.022 40.0232ZM150.044 38.1633V34.9653H150.472V38.2768C150.472 38.8438 150.584 39.2521 150.854 39.5016C151.102 39.7511 151.462 39.8645 151.912 39.8645C152.227 39.8645 152.497 39.8191 152.7 39.683C152.925 39.5696 153.082 39.3882 153.195 39.184C153.285 38.9799 153.353 38.6623 153.353 38.2541V34.9653H153.78V38.1633C153.78 38.5943 153.735 38.9118 153.668 39.1387C153.6 39.3882 153.465 39.5923 153.308 39.7737C153.127 39.9552 152.925 40.0686 152.7 40.1593C152.475 40.2501 152.227 40.2727 151.935 40.2727C151.619 40.2727 151.349 40.2274 151.102 40.1366C150.854 40.0459 150.652 39.9098 150.494 39.7511C150.337 39.5696 150.224 39.3882 150.134 39.1613C150.066 38.9345 150.044 38.5943 150.044 38.1633ZM158.372 34.9653L158.462 35.8952C158.664 35.5777 158.957 35.3282 159.317 35.124C159.677 34.9199 160.06 34.8292 160.442 34.8292H160.577V35.2601H160.442C160.037 35.2601 159.655 35.3735 159.295 35.6003C158.934 35.8272 158.664 36.122 158.462 36.4622V40.1366H158.034V34.9653H158.372ZM164.089 42.5863V42.0873C164.359 42.2233 164.584 42.3141 164.809 42.3821C165.011 42.4275 165.259 42.4502 165.574 42.4502C166.835 42.4502 167.487 41.7697 167.487 40.3635V39.5923H167.465C167.285 39.7964 167.06 39.9552 166.79 40.0913C166.519 40.2047 166.227 40.2727 165.912 40.2727C165.214 40.2727 164.696 40.0459 164.291 39.5696C163.909 39.0933 163.729 38.4355 163.729 37.5963C163.729 36.7344 163.931 36.054 164.314 35.555C164.719 35.0787 165.282 34.8292 166.002 34.8292C166.362 34.8292 166.654 34.8972 166.902 35.056C167.127 35.2147 167.33 35.3735 167.487 35.5323H167.51L167.555 34.9653H167.915V40.3861C167.915 40.9759 167.825 41.4522 167.645 41.7924C167.465 42.1553 167.195 42.4275 166.857 42.5863C166.497 42.7677 166.069 42.8584 165.552 42.8584C165.237 42.8584 164.944 42.8357 164.696 42.7904C164.426 42.7223 164.224 42.6543 164.089 42.5863ZM167.487 39.116V36.0313C167.33 35.8272 167.127 35.6457 166.857 35.4869C166.564 35.3055 166.294 35.2374 166.002 35.2374C165.417 35.2374 164.989 35.4416 164.651 35.8498C164.336 36.2808 164.179 36.8478 164.179 37.5736C164.179 38.3221 164.336 38.8665 164.629 39.2747C164.944 39.683 165.372 39.8645 165.957 39.8645C166.227 39.8645 166.497 39.7964 166.767 39.683C167.037 39.5469 167.262 39.3655 167.487 39.116ZM171.899 37.5056C171.899 36.9612 171.989 36.4849 172.169 36.0766C172.349 35.6911 172.619 35.3735 172.934 35.1467C173.249 34.9426 173.609 34.8292 174.014 34.8292C174.6 34.8292 175.072 35.0333 175.432 35.4189C175.793 35.8272 175.973 36.4622 175.973 37.3015V37.5056H172.349C172.349 38.3221 172.529 38.9118 172.889 39.2974C173.227 39.683 173.722 39.8645 174.352 39.8645C174.892 39.8645 175.365 39.7737 175.793 39.5696V40.0006C175.455 40.182 174.982 40.2727 174.352 40.2727C173.564 40.2727 172.957 40.0459 172.529 39.5469C172.101 39.0706 171.899 38.3902 171.899 37.5056ZM174.014 35.2147C173.564 35.2147 173.182 35.3962 172.889 35.7591C172.574 36.0993 172.394 36.553 172.371 37.0973H175.522C175.5 36.4849 175.387 36.0313 175.117 35.6911C174.87 35.3735 174.51 35.2147 174.014 35.2147ZM180.429 34.9653L180.497 35.8952C180.699 35.5777 180.992 35.3282 181.352 35.124C181.712 34.9199 182.095 34.8292 182.477 34.8292H182.612V35.2601H182.477C182.095 35.2601 181.712 35.3735 181.329 35.6003C180.969 35.8272 180.699 36.122 180.497 36.4622V40.1366H180.069V34.9653H180.429ZM185.426 34.9653H185.898C186.911 37.8004 187.474 39.3655 187.609 39.6603H187.654L189.41 34.9653H189.882L186.821 42.7223H186.349L187.361 40.182L185.426 34.9653ZM203.882 40.1366L203.117 39.3882C202.441 39.9779 201.699 40.2727 200.866 40.2727C200.326 40.2727 199.876 40.182 199.538 39.9779C199.2 39.7737 198.953 39.5242 198.795 39.2294C198.638 38.9345 198.57 38.6397 198.57 38.3221C198.57 37.8685 198.683 37.4829 198.885 37.1427C199.11 36.8251 199.493 36.5076 200.033 36.2127C199.65 35.8045 199.38 35.4642 199.223 35.1694C199.088 34.8745 199.02 34.5797 199.02 34.2621C199.02 33.7631 199.178 33.3549 199.515 33.0373C199.876 32.7425 200.303 32.5837 200.843 32.5837C201.384 32.5837 201.811 32.7198 202.126 33.0146C202.464 33.2868 202.621 33.6724 202.621 34.1714C202.621 34.5116 202.531 34.8065 202.351 35.0787C202.194 35.3282 201.991 35.5323 201.721 35.7137C201.474 35.8952 201.158 36.0766 200.731 36.3035L203.117 38.8211C203.657 38.2087 203.927 37.3922 203.927 36.3715H204.377C204.377 36.9159 204.287 37.4149 204.107 37.8912C203.949 38.3675 203.702 38.7758 203.387 39.116L204.422 40.1366H203.882ZM199.448 34.2394C199.448 34.5343 199.538 34.8292 199.695 35.1013C199.853 35.3735 200.101 35.6911 200.438 36.0313C201.113 35.6911 201.586 35.3962 201.811 35.124C202.059 34.8745 202.171 34.5343 202.171 34.1487C202.171 33.7631 202.036 33.4683 201.789 33.2641C201.541 33.0827 201.226 32.992 200.843 32.992C200.438 32.992 200.101 33.1054 199.83 33.3322C199.583 33.559 199.448 33.8539 199.448 34.2394ZM202.847 39.116L200.326 36.5076C199.83 36.7798 199.493 37.052 199.313 37.3241C199.133 37.5963 199.043 37.9365 199.043 38.3448C199.043 38.7984 199.2 39.1613 199.538 39.4562C199.898 39.7511 200.326 39.8871 200.866 39.8871C201.271 39.8871 201.609 39.8191 201.924 39.7057C202.239 39.5696 202.554 39.3882 202.847 39.116ZM152.182 47.8356L152.272 48.5614C152.52 48.2666 152.767 48.0624 153.015 47.9037C153.263 47.7676 153.555 47.6995 153.915 47.6995C154.343 47.6995 154.681 47.7902 154.951 47.9944C155.221 48.1985 155.401 48.448 155.491 48.7429H155.513C155.761 48.4026 156.031 48.1305 156.301 47.949C156.571 47.7902 156.886 47.6995 157.246 47.6995C157.809 47.6995 158.237 47.8583 158.529 48.1985C158.822 48.5161 158.957 48.9697 158.957 49.5594V53.007H158.529V49.6728C158.529 48.6295 158.102 48.1078 157.224 48.1078C156.864 48.1078 156.571 48.1985 156.324 48.4026C156.076 48.5841 155.828 48.8563 155.603 49.2192V53.007H155.176V49.514C155.176 49.0831 155.063 48.7429 154.838 48.4707C154.613 48.2212 154.275 48.1078 153.87 48.1078C153.533 48.1078 153.24 48.1758 152.992 48.3346C152.745 48.4934 152.497 48.7429 152.272 49.0377V53.007H151.822V47.8356H152.182ZM161.973 50.3759C161.973 49.8316 162.063 49.3553 162.266 48.947C162.446 48.5387 162.693 48.2439 163.008 48.0171C163.323 47.8129 163.684 47.6995 164.089 47.6995C164.696 47.6995 165.169 47.9037 165.507 48.2892C165.867 48.6975 166.047 49.3099 166.047 50.1718V50.3759H162.423C162.423 51.1925 162.603 51.7822 162.963 52.1678C163.301 52.5534 163.796 52.7348 164.449 52.7348C164.989 52.7348 165.462 52.6441 165.867 52.44V52.8709C165.529 53.0524 165.056 53.1431 164.449 53.1431C163.638 53.1431 163.053 52.9163 162.626 52.4173C162.198 51.941 161.973 51.2605 161.973 50.3759ZM164.089 48.0851C163.638 48.0851 163.278 48.2666 162.963 48.6068C162.648 48.9697 162.491 49.4233 162.446 49.9677H165.597C165.597 49.3553 165.462 48.879 165.214 48.5614C164.944 48.2439 164.584 48.0851 164.089 48.0851ZM168.86 50.444C168.86 49.6048 169.063 48.947 169.445 48.448C169.851 47.949 170.391 47.6995 171.043 47.6995C171.404 47.6995 171.696 47.7676 171.966 47.881C172.214 47.9944 172.439 48.1758 172.619 48.448H172.641L172.619 47.8129V44.9777H173.047V51.9863C173.047 52.4173 173.069 52.7575 173.092 53.007H172.754L172.641 52.4173H172.619C172.484 52.5987 172.259 52.7802 171.944 52.939C171.629 53.075 171.336 53.1431 171.043 53.1431C170.638 53.1431 170.278 53.0524 169.963 52.8709C169.625 52.6668 169.355 52.3719 169.153 51.9637C168.95 51.5781 168.86 51.0564 168.86 50.444ZM172.619 51.8502V48.9016C172.169 48.38 171.651 48.1078 171.066 48.1078C170.526 48.1078 170.098 48.3119 169.783 48.7429C169.468 49.1738 169.31 49.7409 169.31 50.4667C169.31 51.1925 169.468 51.7368 169.783 52.1451C170.098 52.5307 170.503 52.7348 171.043 52.7348C171.381 52.7348 171.696 52.6668 171.966 52.4853C172.259 52.3266 172.484 52.0997 172.619 51.8502ZM176.13 50.3759C176.13 49.8316 176.22 49.3553 176.4 48.947C176.58 48.5387 176.828 48.2439 177.165 48.0171C177.481 47.8129 177.841 47.6995 178.246 47.6995C178.831 47.6995 179.304 47.9037 179.664 48.2892C180.024 48.6975 180.181 49.3099 180.181 50.1718V50.3759H176.58C176.58 51.1925 176.76 51.7822 177.098 52.1678C177.458 52.5534 177.953 52.7348 178.583 52.7348C179.124 52.7348 179.596 52.6441 180.024 52.44V52.8709C179.686 53.0524 179.191 53.1431 178.583 53.1431C177.796 53.1431 177.188 52.9163 176.76 52.4173C176.333 51.941 176.13 51.2605 176.13 50.3759ZM178.246 48.0851C177.796 48.0851 177.413 48.2666 177.12 48.6068C176.805 48.9697 176.625 49.4233 176.58 49.9677H179.754C179.731 49.3553 179.596 48.879 179.349 48.5614C179.101 48.2439 178.741 48.0851 178.246 48.0851ZM183.017 50.4667C183.017 49.8089 183.13 49.2645 183.355 48.8563C183.58 48.448 183.873 48.1532 184.233 47.9717C184.593 47.7902 184.953 47.6995 185.336 47.6995C185.583 47.6995 185.831 47.7222 186.078 47.7676C186.304 47.8356 186.506 47.9037 186.664 47.9944V48.448C186.484 48.3346 186.258 48.2666 186.011 48.1985C185.763 48.1305 185.538 48.1078 185.313 48.1078C185.021 48.1078 184.705 48.1758 184.435 48.3346C184.143 48.4934 183.918 48.7429 183.738 49.1058C183.558 49.4687 183.468 49.9223 183.468 50.4667C183.468 51.1698 183.648 51.7142 183.985 52.1224C184.345 52.5307 184.818 52.7348 185.426 52.7348C185.808 52.7348 186.258 52.6441 186.754 52.4173V52.8482C186.349 53.0524 185.898 53.1431 185.381 53.1431C184.953 53.1431 184.548 53.0524 184.188 52.8482C183.828 52.6668 183.535 52.3719 183.333 51.9637C183.107 51.5554 183.017 51.0564 183.017 50.4667ZM189.702 46.0891H190.197V46.6108H189.702V46.0891ZM189.747 47.8356H190.175V53.007H189.747V47.8356ZM193.956 47.8356L194.046 48.6748C194.271 48.38 194.519 48.1305 194.811 47.949C195.081 47.7902 195.397 47.6995 195.757 47.6995C196.274 47.6995 196.679 47.8583 196.95 48.1758C197.22 48.4934 197.355 48.9697 197.355 49.6048V53.007H196.927V49.6501C196.927 49.1285 196.837 48.7429 196.634 48.4934C196.454 48.2439 196.139 48.1078 195.689 48.1078C195.374 48.1078 195.081 48.1985 194.789 48.4026C194.519 48.5841 194.271 48.8563 194.046 49.1738V53.007H193.618V47.8356H193.956ZM200.371 50.3759C200.371 49.8316 200.483 49.3553 200.663 48.947C200.843 48.5387 201.091 48.2439 201.406 48.0171C201.744 47.8129 202.104 47.6995 202.509 47.6995C203.094 47.6995 203.567 47.9037 203.927 48.2892C204.264 48.6975 204.445 49.3099 204.445 50.1718V50.3759H200.843C200.843 51.1925 201.001 51.7822 201.361 52.1678C201.721 52.5534 202.194 52.7348 202.847 52.7348C203.387 52.7348 203.859 52.6441 204.264 52.44V52.8709C203.927 53.0524 203.454 53.1431 202.847 53.1431C202.059 53.1431 201.451 52.9163 201.023 52.4173C200.596 51.941 200.371 51.2605 200.371 50.3759ZM202.509 48.0851C202.059 48.0851 201.676 48.2666 201.361 48.6068C201.068 48.9697 200.888 49.4233 200.843 49.9677H203.994C203.994 49.3553 203.859 48.879 203.612 48.5614C203.364 48.2439 202.982 48.0851 202.509 48.0851ZM92.2227 51.5327C92.2227 51.0564 92.3802 50.6708 92.7179 50.3986C93.033 50.1038 93.4606 49.9677 93.9783 49.9677C94.4509 49.9677 94.9686 50.0584 95.5313 50.2625V49.6048C95.5313 49.1058 95.3962 48.7429 95.1487 48.4707C94.9011 48.2212 94.4959 48.1078 93.9558 48.1078C93.5956 48.1078 93.168 48.1985 92.6503 48.3573V47.949C92.7629 47.881 92.9429 47.8129 93.213 47.7676C93.4606 47.7222 93.7082 47.6995 93.9558 47.6995C94.631 47.6995 95.1262 47.8583 95.4638 48.1758C95.7789 48.4934 95.9589 48.9697 95.9589 49.6048V51.3512C95.9589 51.7142 95.9589 52.2812 96.0039 53.007H95.5988L95.5313 52.4173H95.5088C95.3512 52.5987 95.1036 52.7802 94.7885 52.939C94.4734 53.075 94.1583 53.1431 93.8657 53.1431C93.3706 53.1431 92.9654 53.007 92.6728 52.7348C92.3577 52.4853 92.2227 52.0771 92.2227 51.5327ZM95.5313 51.941V50.6481C95.2612 50.5574 95.0136 50.4667 94.7885 50.4213C94.586 50.3986 94.2934 50.3759 93.9108 50.3759C93.5281 50.3759 93.213 50.4667 92.9879 50.6708C92.7629 50.8749 92.6503 51.1471 92.6503 51.5327C92.6503 51.941 92.7629 52.2585 92.9879 52.44C93.213 52.6441 93.5056 52.7575 93.8657 52.7575C94.2484 52.7575 94.586 52.6668 94.8336 52.508C95.1036 52.3492 95.3287 52.1678 95.5313 51.941ZM99.0199 50.3759C99.0199 49.8316 99.11 49.3553 99.3125 48.947C99.4926 48.5387 99.7402 48.2439 100.055 48.0171C100.393 47.8129 100.753 47.6995 101.135 47.6995C101.743 47.6995 102.216 47.9037 102.576 48.2892C102.913 48.6975 103.093 49.3099 103.093 50.1718V50.3759H99.4926C99.4926 51.1925 99.6502 51.7822 100.01 52.1678C100.347 52.5534 100.843 52.7348 101.495 52.7348C102.036 52.7348 102.508 52.6441 102.913 52.44V52.8709C102.576 53.0524 102.103 53.1431 101.495 53.1431C100.708 53.1431 100.1 52.9163 99.6727 52.4173C99.245 51.941 99.0199 51.2605 99.0199 50.3759ZM101.158 48.0851C100.708 48.0851 100.325 48.2666 100.01 48.6068C99.6952 48.9697 99.5376 49.4233 99.4926 49.9677H102.643C102.643 49.3553 102.508 48.879 102.261 48.5614C102.013 48.2439 101.63 48.0851 101.158 48.0851ZM105.884 52.8936V52.4173C106.289 52.6441 106.74 52.7575 107.257 52.7575C107.685 52.7575 108.045 52.6441 108.293 52.44C108.54 52.2358 108.653 51.941 108.653 51.5781C108.653 51.3059 108.585 51.0791 108.405 50.943C108.248 50.7842 107.955 50.6481 107.572 50.5574C107.212 50.4667 106.92 50.3759 106.695 50.2852C106.47 50.1945 106.289 50.0357 106.132 49.8543C105.997 49.6728 105.929 49.4233 105.929 49.1285C105.929 48.6521 106.087 48.2892 106.402 48.0397C106.717 47.8129 107.122 47.6995 107.617 47.6995C108.068 47.6995 108.495 47.7902 108.878 47.9944V48.4253C108.675 48.3119 108.473 48.2439 108.27 48.1758C108.068 48.1305 107.842 48.0851 107.595 48.0851C107.19 48.0851 106.875 48.1758 106.65 48.3573C106.447 48.5387 106.334 48.7656 106.334 49.0831C106.334 49.3099 106.402 49.4914 106.492 49.6048C106.582 49.7409 106.717 49.8316 106.897 49.8996C107.077 49.9677 107.347 50.0357 107.685 50.1264C108.18 50.2625 108.518 50.4213 108.743 50.6254C108.968 50.8523 109.08 51.1471 109.08 51.5554C109.08 52.0317 108.923 52.4173 108.585 52.7121C108.27 53.007 107.82 53.1431 107.257 53.1431C106.65 53.1431 106.199 53.0524 105.884 52.8936ZM112.231 51.7822V48.2666H111.241V47.8356H112.231V46.452H112.659V47.8356H114.212V48.2666H112.659V51.6461C112.659 52.0544 112.749 52.3266 112.884 52.4853C113.042 52.6668 113.289 52.7348 113.604 52.7348C113.897 52.7348 114.122 52.7121 114.302 52.6441V53.0297C114.077 53.1204 113.829 53.1431 113.537 53.1431C113.132 53.1431 112.817 53.0297 112.569 52.8029C112.344 52.5761 112.231 52.2358 112.231 51.7822ZM117.566 44.9777V48.0851L117.543 48.6748H117.566C118.038 48.0171 118.601 47.6995 119.254 47.6995C119.816 47.6995 120.222 47.8583 120.492 48.1985C120.762 48.5387 120.874 48.9924 120.874 49.6048V53.007H120.447V49.5594C120.447 49.1058 120.357 48.7429 120.154 48.4934C119.951 48.2439 119.659 48.1078 119.231 48.1078C118.601 48.1078 118.038 48.4707 117.566 49.1738V53.007H117.138V44.9777H117.566ZM123.89 50.3759C123.89 49.8316 123.98 49.3553 124.183 48.947C124.363 48.5387 124.611 48.2439 124.926 48.0171C125.241 47.8129 125.601 47.6995 126.006 47.6995C126.614 47.6995 127.086 47.9037 127.424 48.2892C127.784 48.6975 127.964 49.3099 127.964 50.1718V50.3759H124.34C124.34 51.1925 124.521 51.7822 124.881 52.1678C125.218 52.5534 125.713 52.7348 126.366 52.7348C126.906 52.7348 127.379 52.6441 127.784 52.44V52.8709C127.446 53.0524 126.974 53.1431 126.366 53.1431C125.578 53.1431 124.971 52.9163 124.543 52.4173C124.115 51.941 123.89 51.2605 123.89 50.3759ZM126.006 48.0851C125.556 48.0851 125.196 48.2666 124.881 48.6068C124.566 48.9697 124.408 49.4233 124.363 49.9677H127.514C127.514 49.3553 127.379 48.879 127.131 48.5614C126.861 48.2439 126.501 48.0851 126.006 48.0851ZM131.295 51.7822V48.2666H130.305V47.8356H131.295V46.452H131.723V47.8356H133.276V48.2666H131.723V51.6461C131.723 52.0544 131.813 52.3266 131.97 52.4853C132.106 52.6668 132.353 52.7348 132.668 52.7348C132.961 52.7348 133.186 52.7121 133.366 52.6441V53.0297C133.141 53.1204 132.893 53.1431 132.601 53.1431C132.196 53.1431 131.88 53.0297 131.655 52.8029C131.408 52.5761 131.295 52.2358 131.295 51.7822ZM136.157 46.0891H136.675V46.6108H136.157V46.0891ZM136.202 47.8356H136.63V53.007H136.202V47.8356ZM139.713 50.4667C139.713 49.8089 139.826 49.2645 140.051 48.8563C140.276 48.448 140.591 48.1532 140.928 47.9717C141.289 47.7902 141.649 47.6995 142.031 47.6995C142.279 47.6995 142.526 47.7222 142.774 47.7676C143.022 47.8356 143.202 47.9037 143.359 47.9944V48.448C143.179 48.3346 142.954 48.2666 142.707 48.1985C142.459 48.1305 142.234 48.1078 142.031 48.1078C141.716 48.1078 141.401 48.1758 141.131 48.3346C140.838 48.4934 140.613 48.7429 140.433 49.1058C140.253 49.4687 140.163 49.9223 140.163 50.4667C140.163 51.1698 140.343 51.7142 140.681 52.1224C141.041 52.5307 141.514 52.7348 142.121 52.7348C142.504 52.7348 142.954 52.6441 143.449 52.4173V52.8482C143.044 53.0524 142.594 53.1431 142.076 53.1431C141.649 53.1431 141.244 53.0524 140.883 52.8482C140.523 52.6668 140.231 52.3719 140.028 51.9637C139.803 51.5554 139.713 51.0564 139.713 50.4667Z" fill="#252525"></path>
  <path d="M89.4043 24.967H89.6294V25.1834H83.5965V24.967H83.8441C84.2268 24.967 84.4969 24.8804 84.6995 24.6855C84.8796 24.4907 84.9696 24.3175 84.9696 24.1443C84.9696 23.9711 84.9471 23.798 84.8571 23.6248L83.1463 20.0312H75.9203L74.142 23.6464C74.0519 23.8196 74.0294 23.9928 74.0294 24.1443C74.0294 24.3175 74.1195 24.4907 74.2996 24.6855C74.5021 24.8804 74.7723 24.967 75.155 24.967H75.3801V25.1834H70V24.967H70.2476C70.6978 24.967 71.1255 24.8587 71.5532 24.6206C71.9809 24.4041 72.3411 24.0794 72.6112 23.6248L78.6666 12.2595C79.3194 11.1122 79.6571 10.3978 79.6571 10.0731H79.8822L87.0631 23.6248C87.3108 24.0794 87.6484 24.4041 88.0761 24.6206C88.5038 24.8587 88.954 24.967 89.4043 24.967ZM76.258 19.4034H82.8311L79.6121 12.6059L76.258 19.4034ZM91.2726 24.967C91.7229 24.967 92.1281 24.8371 92.4432 24.5773C92.7809 24.3175 92.961 23.9928 92.9835 23.6248V11.7833C92.9159 11.4586 92.7358 11.1771 92.4207 10.939C92.083 10.7009 91.7004 10.5926 91.2726 10.5926H90.935L90.9125 10.3762H98.7462C99.309 10.3762 99.9168 10.3329 100.57 10.2463C101.222 10.1597 101.673 10.0731 101.943 9.98648V12.6492H101.673V12.2812C101.673 11.9348 101.515 11.6534 101.222 11.4153C100.93 11.1771 100.592 11.0473 100.164 11.0256H94.7168V17.5633H99.2415C99.6016 17.5417 99.8943 17.4334 100.142 17.2386C100.389 17.0438 100.525 16.8056 100.525 16.5026V16.2211H100.795V19.5549H100.525V19.2302C100.525 18.9488 100.412 18.7107 100.164 18.5158C99.9168 18.321 99.6241 18.2128 99.264 18.1911H94.7168V24.5123H98.5436C99.8718 24.5123 100.862 24.2959 101.56 23.8196C102.258 23.365 102.843 22.6723 103.316 21.7414H103.564L102.01 25.1834H90.9125V24.967H91.2726ZM106.377 24.3175C106.332 24.1227 106.31 23.733 106.31 23.1702C106.31 22.6073 106.445 22.0012 106.715 21.3734H106.94C106.918 21.5249 106.918 21.6764 106.918 21.828C106.918 22.6939 107.255 23.4083 107.908 23.9711C108.561 24.5556 109.439 24.8371 110.542 24.8371C111.667 24.8371 112.59 24.5773 113.311 24.0361C114.031 23.4949 114.391 22.8238 114.391 22.0228C114.391 21.2002 114.031 20.5508 113.333 20.0312L108.201 16.2644C107.233 15.5717 106.76 14.7058 106.76 13.71C106.76 12.7142 107.188 11.8482 108.021 11.1555C108.876 10.4411 110.024 10.0731 111.465 10.0731C112.14 10.0731 112.905 10.138 113.761 10.2896H114.819V12.8873H114.571C114.571 12.2379 114.279 11.6967 113.693 11.307C113.131 10.9174 112.388 10.7225 111.465 10.7225C110.564 10.7225 109.799 10.9607 109.191 11.4369C108.561 11.9132 108.268 12.5193 108.268 13.2337C108.268 13.9481 108.606 14.5759 109.326 15.0954L114.594 18.9488C115.494 19.5766 115.944 20.4642 115.944 21.6115C115.944 22.7372 115.494 23.6681 114.571 24.3825C113.671 25.1185 112.455 25.4649 110.925 25.4649C110.159 25.4649 109.304 25.3783 108.426 25.1834C107.548 24.9886 106.873 24.7072 106.377 24.3175ZM133.233 12.2595C133.233 11.9132 133.075 11.6318 132.782 11.372C132.467 11.1338 132.107 11.004 131.702 10.9823H126.615V23.6464C126.637 24.0144 126.817 24.3392 127.132 24.5773C127.47 24.8371 127.875 24.967 128.325 24.967H128.686V25.1834H122.81V24.967H123.17C123.621 24.967 124.026 24.8371 124.363 24.5773C124.679 24.3392 124.859 24.0361 124.881 23.6681V10.9823H119.794C119.366 11.004 119.006 11.1338 118.713 11.372C118.421 11.6318 118.263 11.9132 118.263 12.2595V12.6059L117.993 12.6276V9.96484C118.263 10.0514 118.736 10.138 119.389 10.2246C120.041 10.3112 120.649 10.3545 121.212 10.3545H130.261C131.139 10.3545 131.86 10.2896 132.445 10.203C133.03 10.0947 133.368 10.0082 133.503 9.96484V12.6276L133.233 12.6059V12.2595ZM148.653 24.967C149.103 24.967 149.508 24.8371 149.846 24.5773C150.161 24.3392 150.341 24.0144 150.363 23.6464V18.1695H139.401V23.6248C139.401 23.9928 139.581 24.3175 139.918 24.5773C140.256 24.8371 140.661 24.967 141.134 24.967H141.472V25.1834H135.619V24.967H135.956C136.429 24.967 136.812 24.8371 137.15 24.5773C137.487 24.3175 137.645 23.9928 137.667 23.6248V11.8915C137.645 11.5235 137.487 11.2204 137.15 10.9607C136.812 10.7225 136.429 10.5926 135.956 10.5926H135.619V10.3762H141.472V10.5926H141.134C140.661 10.5926 140.256 10.7225 139.941 10.9607C139.603 11.2204 139.423 11.5235 139.401 11.8915V17.5417H150.363V11.8915C150.341 11.3936 150.048 11.004 149.508 10.7442C149.238 10.6359 148.945 10.5926 148.653 10.5926H148.292V10.3762H154.168V10.5926H153.807C153.357 10.5926 152.952 10.7225 152.614 10.9823C152.299 11.2421 152.119 11.5452 152.097 11.9132V23.6248C152.119 23.9928 152.299 24.3175 152.614 24.5773C152.952 24.8371 153.357 24.967 153.807 24.967H154.168V25.1834H148.292V24.967H148.653ZM157.724 24.967C158.175 24.967 158.58 24.8371 158.917 24.5773C159.233 24.3175 159.413 23.9928 159.435 23.6248V11.7833C159.368 11.4586 159.188 11.1771 158.872 10.939C158.557 10.7009 158.175 10.5926 157.724 10.5926H157.387L157.364 10.3762H165.22C165.761 10.3762 166.368 10.3329 167.021 10.2463C167.674 10.1597 168.124 10.0731 168.394 9.98648V12.6492H168.124V12.2812C168.124 11.9348 167.989 11.6534 167.697 11.4153C167.404 11.1771 167.044 11.0473 166.639 11.0256H161.168V17.5633H165.693C166.053 17.5417 166.346 17.4334 166.594 17.2386C166.864 17.0438 166.976 16.8056 166.976 16.5026V16.2211H167.246V19.5549H166.976V19.2302C166.976 18.9488 166.864 18.7107 166.616 18.5158C166.368 18.321 166.076 18.2128 165.716 18.1911H161.168V24.5123H164.995C166.323 24.5123 167.336 24.2959 168.012 23.8196C168.71 23.365 169.295 22.6723 169.768 21.7414H170.038L168.484 25.1834H157.364V24.967H157.724ZM186.966 12.2595C186.966 11.9132 186.831 11.6318 186.516 11.372C186.223 11.1338 185.863 11.004 185.458 10.9823H180.37V23.6464C180.37 24.0144 180.55 24.3392 180.888 24.5773C181.203 24.8371 181.608 24.967 182.081 24.967H182.419V25.1834H176.566V24.967H176.904C177.376 24.967 177.759 24.8371 178.097 24.5773C178.434 24.3392 178.614 24.0361 178.614 23.6681V10.9823H173.527C173.099 11.004 172.739 11.1338 172.446 11.372C172.154 11.6318 172.019 11.9132 172.019 12.2595V12.6059L171.749 12.6276V9.96484C172.019 10.0514 172.469 10.138 173.144 10.2246C173.797 10.3112 174.405 10.3545 174.945 10.3545H183.994C184.872 10.3545 185.593 10.2896 186.178 10.203C186.763 10.0947 187.123 10.0082 187.236 9.96484V12.6276L186.966 12.6059V12.2595ZM189.712 24.967C190.162 24.967 190.568 24.8371 190.883 24.5773C191.22 24.3175 191.4 23.9928 191.423 23.6248V11.8915C191.4 11.5235 191.22 11.2204 190.883 10.9607C190.568 10.7225 190.162 10.5926 189.712 10.5926H189.352V10.3762H195.205V10.5926H194.867C194.394 10.5926 194.012 10.7225 193.674 10.9607C193.336 11.2204 193.179 11.5235 193.156 11.8915V23.6248C193.156 23.9928 193.314 24.3175 193.674 24.5773C194.012 24.8371 194.394 24.967 194.867 24.967H195.205V25.1834H189.352V24.967H189.712ZM207.428 25.4649C204.592 25.4649 202.296 24.7505 200.54 23.3433C198.761 21.9362 197.861 20.0745 197.861 17.7582C197.861 15.4635 198.761 13.6017 200.54 12.1946C202.296 10.7875 204.659 10.0731 207.586 10.0731C209.972 10.0731 212.088 10.5494 213.934 11.5235L214.451 14.4893H214.226C213.821 13.277 213.033 12.3461 211.84 11.6967C210.647 11.0473 209.229 10.7225 207.586 10.7225C205.245 10.7225 203.376 11.3503 201.98 12.6276C200.562 13.9264 199.864 15.615 199.864 17.7365C199.864 19.858 200.562 21.5466 201.958 22.8454C203.331 24.1227 205.154 24.7938 207.428 24.8371C209.409 24.8371 211.097 24.4041 212.425 23.5382C213.866 22.6073 214.744 21.092 215.059 18.9921H215.262L214.947 22.3259C213.326 24.4258 210.805 25.4649 207.428 25.4649ZM218.233 24.3175C218.188 24.1227 218.143 23.733 218.143 23.1702C218.143 22.6073 218.278 22.0012 218.548 21.3734H218.796C218.773 21.5249 218.773 21.6764 218.773 21.828C218.773 22.6939 219.089 23.4083 219.764 23.9711C220.417 24.5556 221.295 24.8371 222.375 24.8371C223.501 24.8371 224.424 24.5773 225.144 24.0361C225.864 23.4949 226.247 22.8238 226.247 22.0228C226.247 21.2002 225.887 20.5508 225.189 20.0312L220.057 16.2644C219.089 15.5717 218.616 14.7058 218.616 13.71C218.616 12.7142 219.021 11.8482 219.877 11.1555C220.732 10.4411 221.88 10.0731 223.321 10.0731C223.996 10.0731 224.761 10.138 225.617 10.2896H226.675V12.8873H226.427C226.427 12.2379 226.135 11.6967 225.549 11.307C224.964 10.9174 224.221 10.7225 223.321 10.7225C222.398 10.7225 221.655 10.9607 221.025 11.4369C220.417 11.9132 220.102 12.5193 220.102 13.2337C220.102 13.9481 220.462 14.5759 221.182 15.0954L226.45 18.9488C227.35 19.5766 227.778 20.4642 227.778 21.6115C227.778 22.7372 227.328 23.6681 226.427 24.3825C225.504 25.1185 224.311 25.4649 222.78 25.4649C221.993 25.4649 221.16 25.3783 220.282 25.1834C219.404 24.9886 218.706 24.7072 218.233 24.3175Z" fill="#252525" stroke="#252525" stroke-width="0.0762"></path>
  <path d="M56.6684 8.85742H8.89062V53.1431H56.6684V8.85742Z" stroke="#252525" stroke-width="0.75"></path>
  <path d="M47.4359 42.8201H47.7773V43.179H38.5588V42.8201H38.923C39.4921 42.8201 39.9245 42.663 40.2204 42.3265C40.4936 42.0124 40.6529 41.6983 40.6529 41.4291C40.6529 41.1374 40.5846 40.8458 40.4936 40.5765L37.876 34.4965H26.8138L24.0596 40.599C23.9685 40.8906 23.9002 41.1598 23.9002 41.4515C23.9002 41.7207 24.0596 42.0124 24.3327 42.3265C24.6286 42.663 25.0611 42.8201 25.6301 42.8201H25.9943V43.179H17.7773V42.8201H18.1415C18.8244 42.8201 19.4845 42.6182 20.1446 42.2368C20.8046 41.8553 21.3282 41.2945 21.7379 40.5765L30.9792 21.3942C32.0034 19.4647 32.5042 18.2308 32.5042 17.7148H32.8684L43.8395 40.5765C44.2265 41.2945 44.75 41.8553 45.3873 42.2368C46.0474 42.6182 46.7303 42.8201 47.4359 42.8201ZM27.3145 33.442H37.3752L32.4587 21.9999L27.3145 33.442Z" fill="#252525"></path>
</svg>
